<?xml version="1.0" standalone="no"?><!DOCTYPE svg PUBLIC "-//W3C//DTD SVG 1.1//EN" "http://www.w3.org/Graphics/SVG/1.1/DTD/svg11.dtd"><svg t="1749196971452" class="icon" viewBox="0 0 1025 1024" version="1.1" xmlns="http://www.w3.org/2000/svg" p-id="6570" xmlns:xlink="http://www.w3.org/1999/xlink" width="200.1953125" height="200"><path d="M847.6574667 90.125L176.43559052 90.125C128.79028376 90.125 90.125 128.69722653 90.125 176.38906231L90.125 847.61093769c0 47.69183579 38.66528375 86.26406231 86.31059051 86.26406231l671.22187619 0c47.64530677 0 86.31059051-38.52569751 86.31059053-86.26406231L933.96805722 176.38906231C933.96805722 128.69722653 895.34930249 90.125 847.6574667 90.125zM576.20949613 232.59563501l41.08477148 0 0 129.58220709c0 24.89281183 0.79098679 24.14835407 1.62850177 27.26577136 0.88404401 3.30353174 3.86187588 11.07381172 13.49330026 11.07381171 10.23629673 0 13.07454236-8.18903706 13.86552914-11.67868405 0.65140054-3.02436007 1.3958583-2.41948855 1.39585831-28.38245801L647.67745708 232.59563501l41.0382433 0 0 194.48963279-41.59658661 0 0.51181512-9.81753883L634.97514361 412.00999478c-3.21047452 6.51400708-6.93276416 11.16686892-11.49256961 14.42387247-4.60633365 3.21047452-9.77101062 4.83897629-15.91278799 4.83897628-7.0723504 0-12.8418989-1.53544455-17.21558991-4.55980461-4.28063296-2.93130286-7.25846484-6.56053528-9.21266647-11.16686894-2.1403169-5.11814795-3.48964618-10.65505381-4.0014613-16.09890243-0.60487235-6.28136362-0.9305722-19.26284875-0.93057221-38.61875473L576.20949613 232.59563501C576.20949613 232.59563501 576.20949613 232.59563501 576.20949613 232.59563501zM433.45968863 313.46237689c0-20.28647818 1.72155899-35.96662354 4.97856253-47.08696343 3.07088909-10.28282492 8.51473773-18.37880474 16.65724576-24.61364017C463.37759202 235.29429523 474.31181747 232.08382071 487.6190033 232.08382071c11.35298337 0 21.07746497 2.23337411 29.03385937 6.42094986 7.72375095 4.09451853 13.6794147 9.44530994 17.72740421 15.72667355C538.5213136 260.83850759 541.40608826 267.58515732 542.94153281 274.37833606c1.58197275 7.0723504 2.37295954 18.51839099 2.37295952 33.96589288l0 34.24506454c0 20.10036374-0.79098679 34.75687967-2.23337411 43.78343171C541.68525991 394.65481946 538.61437082 402.56468485 534.00803717 409.82314969 529.40170435 416.94202911 523.67868405 422.24629151 516.37369018 425.68940949 508.83605368 429.27211288 499.94908707 431.13325812 489.99196283 431.13325812c-11.35298337 0-20.98440774-1.58197275-28.70815869-4.83897629C454.11839652 423.40950718 448.62801886 419.22193142 444.812672 413.59196835 440.90426791 407.72936182 438.01949408 400.517426 436.29793509 392.1422745 434.43678986 383.11572165 433.50621765 369.06407889 433.50621765 350.31304443 433.50621765 350.31304443 433.45968863 313.46237689 433.45968863 313.46237689zM337.37808831 163.31451996l33.40754958 107.52764173c5.81607752-28.10328635 17.07600367-67.00121356 26.00949846-107.52764173l30.29013145 0L388.09428418 316.71938043 387.81511252 317.92912512 387.81511252 426.99221057 352.31377509 426.99221057 352.31377509 317.92912512 352.03460342 316.76590946 307.08795605 163.31451996C307.08795605 163.31451996 337.37808831 163.31451996 337.37808831 163.31451996zM820.99656687 764.78999417c-5.30426239 48.38976535-48.2501791 88.0321495-96.407301 91.28915305-141.81923447 6.09524918-283.21971185 6.09524918-424.9924173 0-48.2036509-3.25700354-91.1030386-42.89938769-96.45383002-91.28915305-5.25773419-76.58610892-5.25773419-151.82288772 0-228.31593942 5.30426239-48.38976535 48.2501791-87.93909229 96.45383002-91.33568124 141.77270627-6.04872098 283.17318283-6.04872098 424.9924173 0 48.2036509 3.39658897 91.1030386 42.94591672 96.407301 91.33568124C826.30083008 612.96710562 826.30083008 688.20388526 820.99656687 764.78999417zM489.38709048 407.86894805c5.95566376 0 10.60852561-3.5827034 12.70231348-9.7710106C503.06650518 395.2596918 504.22972002 389.86237219 504.22972002 375.15932807L504.22972002 290.8959964c0-17.02947464-0.97710123-22.51985229-2.00073064-25.6372696C500.13520151 258.93083417 495.52886868 255.25507354 489.52667673 255.25507354c-5.90913473 0-10.56199658 3.5361752-12.74884168 9.81753883C475.66114758 268.09697244 474.54446094 273.72693552 474.54446094 290.8959964l0 81.93690032c0 16.09890244 1.16321567 21.63580828 2.18684509 24.7532256C478.8716221 404.1001294 483.47795575 407.86894805 489.38709048 407.86894805zM258.41901987 551.17709805l33.50060677 0L298.57321915 551.17709805l0 6.83970695 0 218.87062947 42.0618727 1e-8 0-218.87062949L340.63509186 551.17709805l6.6070643 0 33.6401922 0 0-42.80633047L258.41901987 508.37076758 258.41901987 551.17709805zM457.32887103 699.83604028c0 24.24141128-0.69792956 30.24360324-1.25627288 32.80267722-1.44238732 6.28136362-6.46747806 10.09671048-13.53982847 10.09671048-6.74664972 0-11.63215503-3.62923242-13.21412778-9.63142439-0.69792956-2.55907398-1.44238732-8.56126593-1.44238732-31.63946154l0-128.27940601L388.04775598 573.18513604l0 139.77197562c0 18.42533377 0.27917166 30.70888935 0.83751499 36.75761033 0.55834332 5.53690585 2.00073066 11.02728269 4.23410476 16.19195965 2.00073066 4.65286184 5.02509073 8.23556607 9.2591955 10.98075449 4.09451853 2.83824563 9.53836716 4.18757574 16.09890243 4.18757574 5.62996308 0 10.51546838-1.44238732 14.79610135-4.37369019 4.42021921-2.97783188 8.28209426-7.72375095 11.44604059-14.00511456l12.60925626 3.0708891L456.77052771 777.12007795l40.38684275-1e-8 0-203.93494272L457.37540006 573.18513604 457.32887103 699.83604028zM633.48622726 583.51448916c-2.1868451-4.32716198-5.35079141-7.5376365-9.53836715-10.00365325-4.32716198-2.46601675-9.63142437-3.62923242-15.72667356-3.62923243-5.11814795 0-9.7244816 1.25627288-14.14470081 4.00146131-4.51327642 2.88477466-8.74738037 7.1188786-12.56272723 13.07454236L569.36978919 605.7086416l0-22.61290951L569.36978919 508.4172966 529.54128976 508.4172966l0 268.51666773 37.59512531 0 2.32643133-11.95785572 3.25700354-16.65724575 8.84043759 14.33081524c3.90840408 6.42094986 8.23556607 11.12033991 12.7953707 14.23775803 4.32716198 2.88477466 8.84043759 4.37369018 13.77247193 4.37369019 6.97929319 0 12.8418989-2.46601675 17.96004767-7.25846485 5.35079141-5.21120517 8.65432314-11.02728269 10.09671048-18.09963308 1.58197275-7.81680818 2.37295954-20.19342096 2.37295952-19.35590598l0-106.5970687c0 0.46528611 1.58197275-10.60852561-0.79098677-32.61656278C637.34810315 592.72715647 635.90571582 588.21388003 633.48622726 583.51448916zM598.82240564 701.83677093c0 19.07673432-0.97710123 24.89281183-1.76808719 27.91717192-1.86114441 6.56053528-6.56053528 10.37588213-12.88842792 10.37588213-6.1417782 0-10.84116824-3.62923242-12.7953707-10.00365325-0.9305722-2.88477466-1.95420245-8.56126593-1.95420244-26.00949849l0-54.01972842c0-18.14616211 0.9305722-23.59001074 1.76808718-26.19561291 1.81461622-6.00219196 6.56053528-9.63142437 12.65578445-9.63142439 6.28136362 0 11.02728269 3.81534686 13.02801334 10.28282493 0.88404401 2.83824563 2.04725967 8.51473773 2.04725967 25.6372696l0 51.69329708L598.82240564 701.83677093 598.82240564 701.83677093zM707.65284845 681.08500583l6.6535925 0 62.11570825 0 0-22.14762341c0-20.05383554-1.86114441-43.03897393-5.53690585-53.78708496-3.48964618-10.37588213-9.39878092-18.37880474-18.0996331-24.56711115-8.42168051-5.95566376-19.49549222-9.07308106-32.84920623-9.07308106-10.84116824 0-20.51912165 2.51254578-28.75468771 7.5841647s-13.95858636 12.19049836-17.58781878 21.82192273c-3.81534686 10.00365326-5.81607752 24.24141128-5.81607752 49.506452l0 62.58099436c0 8.04945163 0.9305722 19.96077832 2.60560299 27.77758649 1.67502997 7.5376365 4.69939087 14.51692969 8.98002385 20.7982933 4.04799033 5.90913473 9.95712506 10.70158283 17.40170433 14.191229 7.63069373 3.5361752 16.65724576 5.35079141 26.80048527 5.35079142 10.37588213 0 19.0302053-1.81461622 25.63726958-5.2577342 6.60706431-3.48964618 12.09744113-8.84043759 16.47113132-15.91278798 4.55980463-7.35152207 7.49110748-14.37734344 8.70085218-20.70523609 1.30280109-6.6535925 1.95420245-16.51766034 1.95420245-29.35955924l0-9.53836715-37.03678198 0 0 21.96150896c0 11.63215503-0.79098679 19.21632055-2.41948856 23.77612519-2.27990231 6.1883064-7.5376365 9.81753882-14.37734344 9.81753882-6.00219196 0-10.65505381-2.97783188-12.74884168-8.32862329-1.02362942-2.51254578-2.1868451-7.02582138-2.18684509-21.03093677L707.55979123 687.55248388l0-6.42094985 0.09305722 0L707.65284845 681.08500583zM707.65284845 652.46990436l0-23.03166743c0-16.93641742 0.88404401-14.37734344 1.62850177-16.65724575 1.76808719-5.44384863 6.56053528-8.65432314 13.21412778-8.65432316 5.95566376 0 10.51546838 3.48964618 12.33008459 9.44530994 0.74445776 2.41948855 1.67502997 0.09305722 1.67502997 15.86625981l0 23.03166741 0 6.46747805-6.6535925 0-15.49403091 0-6.6535925 0C707.69937665 658.93738242 707.65284845 652.46990436 707.65284845 652.46990436z" fill="#1296db" p-id="6571"></path></svg>